<svg height="512" viewBox="0 0 64 64" width="512" xmlns="http://www.w3.org/2000/svg"><g id="Clouds"><path d="m28.71426 21.44558a5.14746 5.14746 0 0 1 -4.48 4.21 5.01426 5.01426 0 0 1 -.67.04h-15.54a4.1613 4.1613 0 0 1 -.32-8.31 4.3688 4.3688 0 0 1 1.15.08.49633.49633 0 0 0 .6-.42 6.91431 6.91431 0 0 1 13.28-1.82.49463.49463 0 0 0 .52.32c.15-.01.3-.01.45-.01a4.84348 4.84348 0 0 1 1.71.3c.00995.00995.00995.00995.00995 0a5.0855 5.0855 0 0 1 3.29005 5.61z" fill="#699e9e"/><path d="m8.02111 25.69615h14.01613c2.51039 0 5.05527-1.41858 5.424-3.906.41581-2.80465-1.43177-5.60609-4.69959-5.32234a.51184.51184 0 0 1 -.52477-.32029c-1.029-2.53455-3.01256-5.23794-5.91254-5.23794a6.92462 6.92462 0 0 0 -6.87384 6.1323.49166.49166 0 0 1 -.59463.42124 4.1583 4.1583 0 1 0 -.83476 8.233z" fill="#8ac4d0"/><path d="m60.06423 25.18558a4.95314 4.95314 0 0 1 -2.59 3.6 5.18328 5.18328 0 0 1 -1.89.61005 4.83117 4.83117 0 0 1 -.67.04h-15.54a4.15613 4.15613 0 0 1 -.31-8.3 3.98282 3.98282 0 0 1 1.15.07.48709.48709 0 0 0 .59-.42 6.63087 6.63087 0 0 1 1.06-2.94 6.91048 6.91048 0 0 1 12.23 1.13.504.504 0 0 0 .52.32 3.38606 3.38606 0 0 1 .45-.02 5.07469 5.07469 0 0 1 5 5.90995z" fill="#699e9e"/><path d="m39.37677 29.43967h14.01613c2.51039 0 5.05527-1.41858 5.424-3.906.41581-2.80465-1.43177-5.60608-4.69959-5.32233a.51187.51187 0 0 1 -.52477-.32029c-1.029-2.53455-3.01256-5.238-5.91254-5.238a6.92463 6.92463 0 0 0 -6.87387 6.13226.49165.49165 0 0 1 -.59463.42123 4.1583 4.1583 0 1 0 -.83476 8.233z" fill="#8ac4d0"/><path d="m57.47427 28.78555a5.18328 5.18328 0 0 1 -1.89.61005 4.83117 4.83117 0 0 1 -.67.04h-15.54a4.15613 4.15613 0 0 1 -.31-8.3 3.98282 3.98282 0 0 1 1.15.07.48709.48709 0 0 0 .59-.42 6.63087 6.63087 0 0 1 1.06-2.94 15.47567 15.47567 0 0 1 4.99 6.52 1.15274 1.15274 0 0 0 1.18006.72c.33-.03.67-.04 1-.04a11.35729 11.35729 0 0 1 8.43994 3.73995z" fill="#699e9e"/><path d="m28.71426 21.44558a5.14746 5.14746 0 0 1 -4.48 4.21 5.01426 5.01426 0 0 1 -.67.04h-7.32a15.64607 15.64607 0 0 1 9.17-9.86c.00995.00995.00995.00995.00995 0a5.0855 5.0855 0 0 1 3.29005 5.61z" fill="#699e9e"/><path d="m59.73422 39.26559a11.53663 11.53663 0 0 1 -10.06995 9.46 12.498 12.498 0 0 1 -1.51.09h-34.94a9.34907 9.34907 0 0 1 -.71-18.67 9.63949 9.63949 0 0 1 2.59.16 1.10381 1.10381 0 0 0 1.34-.94 15.54887 15.54887 0 0 1 29.86-4.08 1.15267 1.15267 0 0 0 1.18006.72c.33-.03.67-.04 1-.04a11.42625 11.42625 0 0 1 11.25989 13.3z" fill="#c6c6c6"/><path d="m13.21755 48.81723h31.50986c5.64365 0 11.893-3.96 12.72206-9.552.93477-6.30517-3.2188-12.60312-10.56523-11.96521a1.1507 1.1507 0 0 1 -1.17973-.72002c-2.31319-5.698-7.30078-11.00456-13.82028-11.00456a15.56735 15.56735 0 0 0 -15.45323 13.78601 1.10532 1.10532 0 0 1 -1.33682.947 9.34833 9.34833 0 1 0 -1.87663 18.50879z" fill="#ebeff2"/><path d="m41.21426 48.81558h-25.62a4.36089 4.36089 0 0 1 3.96-3.74 4.31214 4.31214 0 0 1 1.2.07.51388.51388 0 0 0 .63-.44 7.21655 7.21655 0 0 1 13.86-1.89.52511.52511 0 0 0 .55.33c.15-.01.31-.01.46-.01a4.96411 4.96411 0 0 1 4.96 5.68z" fill="#c6c6c6"/><path d="m19.06162 27.629a13.4539 13.4539 0 0 1 8.48426-9.25739 1 1 0 0 1 .67942 1.881 11.45106 11.45106 0 0 0 -7.22688 7.87879 1.00046 1.00046 0 0 1 -1.9368-.5024z" fill="#fff"/><path d="m31.745 18.4947a1 1 0 1 1 -1.0173-.9824 1 1 0 0 1 1.0173.9824z" fill="#fff"/><path d="m40.39577 48.845a5.13169 5.13169 0 0 1 -4.47929 4.208 5.559 5.559 0 0 1 -.67167.04h-15.54192a4.15863 4.15863 0 0 1 -.31583-8.30473 4.28822 4.28822 0 0 1 1.15209.07116.491.491 0 0 0 .596-.41813 6.91641 6.91641 0 0 1 13.28224-1.81486.5127.5127 0 0 0 .5249.32028c.14677-.01335.298-.01778.44482-.01778a5.08256 5.08256 0 0 1 5.00866 5.91606z" fill="#699e9e"/><path d="m19.70435 53.09445h14.01613c2.5104 0 5.05528-1.41857 5.424-3.906.4158-2.80465-1.43177-5.60609-4.69959-5.32234a.51184.51184 0 0 1 -.52477-.32029c-1.029-2.53455-3.01256-5.23795-5.91254-5.23795a6.92463 6.92463 0 0 0 -6.87387 6.13226.49167.49167 0 0 1 -.59464.42124 4.1583 4.1583 0 1 0 -.83476 8.233z" fill="#8ac4d0"/></g></svg>