<svg height="512" viewBox="0 0 64 64" width="512" xmlns="http://www.w3.org/2000/svg"><g id="Rain"><path d="m15.12 46.55537a3.18336 3.18336 0 0 1 -3.12 3.24 3.0401 3.0401 0 0 1 -2.46-1.26 3.2303 3.2303 0 0 1 -.66-1.98c0-1.99 2.51-4.3 3.08-6.69 0-.02.02-.03.04-.03s.04.01.04.03c.04.16.08.31.13.45.74 2.22999 2.95 4.37 2.95 6.24z" fill="#699e9e"/><path d="m14.12 45.55537a3.18336 3.18336 0 0 1 -3.12 3.24 2.92684 2.92684 0 0 1 -1.46-.26 3.2303 3.2303 0 0 1 -.66-1.98c0-1.99 2.51-4.3 3.08-6.69 0-.02.02-.03.04-.03s.04.01.04.03c.04.16.08.31.13.45.63 2.10999 1.95 3.38001 1.95 5.24z" fill="#8ac4d0"/><path d="m25.12 56.563a3.18337 3.18337 0 0 1 -3.12 3.24 3.0401 3.0401 0 0 1 -2.46-1.26 3.2303 3.2303 0 0 1 -.66-1.98c0-1.99 2.51-4.3 3.08-6.69 0-.02.02-.03.04-.03s.04.01.04.03c.04.16.08.31.13.45.74 2.23 2.95 4.37 2.95 6.24z" fill="#699e9e"/><path d="m24.12 55.563a3.18337 3.18337 0 0 1 -3.12 3.24 2.92684 2.92684 0 0 1 -1.46-.26 3.2303 3.2303 0 0 1 -.66-1.98c0-1.99 2.51-4.3 3.08-6.69 0-.02.02-.03.04-.03s.04.01.04.03c.04.16.08.31.13.45.63 2.11 1.95 3.38 1.95 5.24z" fill="#8ac4d0"/><path d="m35.12 46.55433a3.18336 3.18336 0 0 1 -3.12 3.24 3.0401 3.0401 0 0 1 -2.46-1.26 3.2303 3.2303 0 0 1 -.66-1.98c0-1.99 2.51-4.3 3.08-6.69 0-.02.02-.03.04-.03s.04.01.04.03c.04.16.08.31.13.45.74 2.22999 2.95 4.37001 2.95 6.24z" fill="#699e9e"/><path d="m34.12 45.55433a3.18336 3.18336 0 0 1 -3.12 3.24 2.92684 2.92684 0 0 1 -1.46-.26 3.2303 3.2303 0 0 1 -.66-1.98c0-1.99 2.51-4.3 3.08-6.69 0-.02.02-.03.04-.03s.04.01.04.03c.04.16.08.31.13.45.63 2.11 1.95 3.38002 1.95 5.24z" fill="#8ac4d0"/><path d="m45.12 56.5554a3.18336 3.18336 0 0 1 -3.12 3.24 3.0401 3.0401 0 0 1 -2.46-1.26 3.2303 3.2303 0 0 1 -.66-1.98c0-1.99 2.51-4.3 3.08-6.69 0-.02.02-.03.04-.03s.04.01.04.03c.04.16.08.31.13.45.74 2.22999 2.95 4.37001 2.95 6.24z" fill="#699e9e"/><path d="m44.12 55.5554a3.18336 3.18336 0 0 1 -3.12 3.24 2.92684 2.92684 0 0 1 -1.46-.26 3.2303 3.2303 0 0 1 -.66-1.98c0-1.99 2.51-4.3 3.08-6.69 0-.02.02-.03.04-.03s.04.01.04.03c.04.16.08.31.13.45.63 2.11 1.95 3.38001 1.95 5.24z" fill="#8ac4d0"/><path d="m55.12 46.562a3.18337 3.18337 0 0 1 -3.12 3.24 3.0401 3.0401 0 0 1 -2.46-1.26 3.2303 3.2303 0 0 1 -.66-1.98c0-1.99 2.51-4.3 3.08-6.69 0-.02.02-.03.04-.03s.04.01.04.03c.04.16.08.31.13.45.74 2.23 2.95 4.37 2.95 6.24z" fill="#699e9e"/><path d="m54.12 45.562a3.18337 3.18337 0 0 1 -3.12 3.24 2.92684 2.92684 0 0 1 -1.46-.26 3.2303 3.2303 0 0 1 -.66-1.98c0-1.99 2.51-4.3 3.08-6.69 0-.02.02-.03.04-.03s.04.01.04.03c.04.16.08.31.13.45.63 2.11 1.95 3.38 1.95 5.24z" fill="#8ac4d0"/><path d="m59.85 27.887a11.53665 11.53665 0 0 1 -10.07 9.46 12.5 12.5 0 0 1 -1.51.09h-34.94a9.34907 9.34907 0 0 1 -.71-18.67 9.63951 9.63951 0 0 1 2.59.16 1.1038 1.1038 0 0 0 1.34-.94 15.54887 15.54887 0 0 1 29.86-4.08 1.15268 1.15268 0 0 0 1.18006.72c.33-.03.67-.04 1-.04a11.42619 11.42619 0 0 1 11.25994 13.3z" fill="#c6c6c6"/><path d="m13.33331 37.4403h31.50986c5.64365 0 11.893-3.96006 12.72206-9.552.93477-6.30513-3.2188-12.60308-10.56523-11.96518a1.15068 1.15068 0 0 1 -1.17973-.72005c-2.3132-5.69796-7.30079-11.00457-13.82027-11.00457a15.56736 15.56736 0 0 0 -15.45324 13.786 1.10531 1.10531 0 0 1 -1.33681.947 9.34833 9.34833 0 1 0 -1.87664 18.5088z" fill="#ebeff2"/><g fill="#fff"><path d="m19.17738 16.252a13.4539 13.4539 0 0 1 8.48426-9.25739 1 1 0 0 1 .67941 1.881 11.45108 11.45108 0 0 0 -7.22687 7.87879 1.00046 1.00046 0 0 1 -1.9368-.5024z"/><path d="m31.86072 7.11777a1 1 0 1 1 -1.0173-.9824 1 1 0 0 1 1.0173.9824z"/></g></g></svg>