<svg height="512" viewBox="0 0 64 64" width="512" xmlns="http://www.w3.org/2000/svg"><g id="Sun"><path d="m41.94 22.14a.07828.07828 0 0 0 -.04-.04 13.951 13.951 0 1 0 .04.04z" fill="#699e9e"/><path d="m41.9 22.1a13.99993 13.99993 0 0 0 -20.31 19.26c7.30286 6.25445 22.66 1.23447 22.66-11.36 0-4.28609-1.732-7.59009-2.35-7.9z" fill="#8ac4d0"/><path d="m20.40936 28.5076a11.10576 11.10576 0 0 1 4.95939-6.7348.99984.99984 0 0 1 1.04165 1.70688 9.09676 9.09676 0 0 0 -4.06108 5.51232.99976.99976 0 0 1 -1.93996-.4844z" fill="#fff"/><path d="m31 11v-6a1 1 0 0 1 2 0v6a1 1 0 0 1 -2 0zm-8.63379 2.31348-2-3.46436a1.00019 1.00019 0 0 0 -1.73242 1l2 3.46436a1.00017 1.00017 0 0 0 1.73242-1zm-11.36621 17.68652h-4a1 1 0 0 0 0 2h4a1 1 0 0 0 0-2zm9.36621 23.15088 2-3.46436a1.0002 1.0002 0 0 0 -1.73242-1l-2 3.46436a1.00021 1.00021 0 0 0 1.73242 1zm25-1-2-3.46436a1.00019 1.00019 0 0 0 -1.73242 1l2 3.46436a1.00017 1.00017 0 0 0 1.73242-1zm11.63379-22.15088h-4a1 1 0 0 0 0 2h4a1 1 0 0 0 0-2zm-13.63379-16.68652 2-3.46436a1.0002 1.0002 0 0 0 -1.73242-1l-2 3.46436a1.00021 1.00021 0 0 0 1.73242 1zm-29.05273 6.32031-5.19629-3a1.00019 1.00019 0 0 0 -1 1.73242l5.19629 3a1.00018 1.00018 0 0 0 1-1.73242zm-5.19629 25.73242 5.19629-3a1.00019 1.00019 0 0 0 -1-1.73242l-5.19629 3a1.0002 1.0002 0 0 0 1 1.73242zm23.88281 12.63379v-6a1 1 0 0 0 -2 0v6a1 1 0 0 0 2 0zm22.88281-14.36621-5.19629-3a1.00019 1.00019 0 0 0 -1 1.73242l5.19629 3a1.00018 1.00018 0 0 0 1-1.73242zm-5.19629-22.26758 5.19629-3a1.00019 1.00019 0 0 0 -1-1.73242l-5.19629 3a1.0002 1.0002 0 0 0 1 1.73242z" fill="#8ac4d0"/><path d="m29.62748 21.21417a1 1 0 1 1 -1.03429-.96449 1 1 0 0 1 1.03429.96449z" fill="#fff"/></g></svg>