<svg height="512" viewBox="0 0 64 64" width="512" xmlns="http://www.w3.org/2000/svg"><g id="Thundercloud"><path d="m31.86072 7.29836a1 1 0 1 1 -1.0173-.9824 1 1 0 0 1 1.0173.9824z" fill="#fff"/><path d="m59.85 28.07a11.60777 11.60777 0 0 1 -11.58 9.55h-34.94a9.34908 9.34908 0 0 1 -.71-18.67 9.24791 9.24791 0 0 1 2.59.16 1.11013 1.11013 0 0 0 1.34-.94 15.54887 15.54887 0 0 1 29.86-4.08 1.16573 1.16573 0 0 0 1.18006.72c.33-.03.67-.04 1-.04a11.42624 11.42624 0 0 1 11.25994 13.3z" fill="#c6c6c6"/><path d="m13.33331 37.62089h31.50986c5.64365 0 11.893-3.96 12.72206-9.552.93477-6.30513-3.2188-12.60308-10.56523-11.96517a1.1507 1.1507 0 0 1 -1.17973-.72006c-2.3132-5.69796-7.30079-11.00456-13.82027-11.00456a15.56736 15.56736 0 0 0 -15.45324 13.786 1.10531 1.10531 0 0 1 -1.33681.947 9.34833 9.34833 0 1 0 -1.87663 18.50879z" fill="#ebeff2"/><path d="m19.17738 16.43262a13.4539 13.4539 0 0 1 8.48426-9.25739 1 1 0 0 1 .67941 1.881 11.451 11.451 0 0 0 -7.22687 7.87877 1.00046 1.00046 0 0 1 -1.9368-.50238z" fill="#fff"/><path d="m38.79 32.2-2.78 5.42h-7.97l1.96-5.74a.59126.59126 0 0 1 .57-.41h7.77a.50036.50036 0 0 1 .45.73z" fill="#c6c6c6"/><path d="m28.49581 31.88208-4.55156 13.37354a.5.5 0 0 0 .47334.6611h5.03032l-4.87358 13.73222a.2.2 0 0 0 .34932.18577l13.06035-17.67043a.5.5 0 0 0 -.4021-.79719h-4.99083l4.69683-9.17129a.5.5 0 0 0 -.445-.72791h-7.76861a.61107.61107 0 0 0 -.57848.41419z" fill="#699e9e"/><path d="m28.49581 31.88208-4.55156 13.37354a.5.5 0 0 0 .47334.6611h5.03032l-4.87358 13.73222a.2.2 0 0 0 .34932.18577l11.06035-17.67043a.5.5 0 0 0 -.4021-.79719h-4.173a.5.5 0 0 1 -.445-.72791l4.324-8.44338a.5.5 0 0 0 -.445-.72791h-5.76861a.61107.61107 0 0 0 -.57848.41419z" fill="#8ac4d0"/></g></svg>